<svg xmlns="http://www.w3.org/2000/svg" width="16" height="16" viewBox="0 0 16 16">
  <g id="Group_137" data-name="Group 137" transform="translate(-1184 -314)">
    <rect id="Rectangle_144" data-name="Rectangle 144" width="16" height="16" transform="translate(1184 314)" fill="#fff"/>
    <path id="arrow" d="M13.78,17.053c.007-.009.009-.02.016-.029L18.45,11.4a.94.94,0,0,0,0-1.146l-.008-.006A.6.6,0,0,0,17.967,10H8.658a.614.614,0,0,0-.481.257l0,0a.939.939,0,0,0,0,1.146l4.664,5.653a.585.585,0,0,0,.941,0Z" transform="translate(1178.937 308.578)" fill="#afafaf"/>
  </g>
</svg>
